<?xml version="1.0" encoding="iso-8859-1"?>
<!-- Generator: Adobe Illustrator 19.0.0, SVG Export Plug-In . SVG Version: 6.00 Build 0)  -->
<svg version="1.1" id="Capa_1" xmlns="http://www.w3.org/2000/svg" xmlns:xlink="http://www.w3.org/1999/xlink" x="0px" y="0px"
	 viewBox="0 0 512 512" style="enable-background:new 0 0 512 512;" xml:space="preserve">
<g>
	<g>
		<path d="M464.646,454.75l-13.22-36.723l22-6.05l29.829-167.04l-85.03-55.597l12.208-47.088l-64.292-45.626h-90.367L236.325,42.25
			h-31.917l-26.41,88.663l-56.134,5.614l-17.911,55.724H76.534l-24.346,105.5L67.28,338.5H51.557l-21.482,18.796l48.727,97.454H0v15
			h512v-15H464.646z M95.573,454.751l-7.5-15.001H150v-15H80.573l-31.898-63.796l8.518-7.454h50.914l16.259-16.259l-10.606-10.606
			L101.894,338.5H83.276l-15.463-41.75l20.654-89.5H135v-15h-15.292l13.428-41.776l56.366-5.636l26.09-87.587h13.083l67.129,92.529
			l12.142-8.809l-21.29-29.346h66.272l-6.359,16.958l-17.797,8.089l6.207,13.655l23.453-10.66l8.921-23.789l45.965,32.62
			l-8.342,32.178l-5.517-3.607l-20.708,1.657v-14.601h-15v15.801l-13.723,1.098l1.196,14.952l44.319-3.545l83.502,54.598
			l-28.789,16.272l-16.384-1.639l-1.492,14.926l21.116,2.111l31.692-17.913L465.283,372.25H427.5v15h35.105l-2.281,12.773
			l-70.438,19.371l3.978,14.463l43.056-11.84l11.784,32.734H95.573z"/>
	</g>
</g>
<g>
	<g>
		<rect x="135" y="207.25" width="15" height="15"/>
	</g>
</g>
<g>
	<g>
		<path d="M249.394,344.181l-35.336,4.361l-5.379,10.086c-2.631,4.933-7.738,7.997-13.328,7.997h-3.547
			c-8.329,0-15.105-6.776-15.105-15.105v-10.289l-27.019-27.019l-10.606,10.606l22.625,22.625v4.076
			c0,16.6,13.505,30.105,30.105,30.105h3.547c11.142,0,21.32-6.107,26.563-15.938l1.713-3.212l27.604-3.406L249.394,344.181z"/>
	</g>
</g>
<g>
	<g>
		<rect x="168.061" y="294.049" transform="matrix(0.9683 -0.2499 0.2499 0.9683 -72.3638 53.7657)" width="15" height="35.643"/>
	</g>
</g>
<g>
	<g>
		
			<rect x="187.654" y="300.086" transform="matrix(0.2425 -0.9701 0.9701 0.2425 -142.3511 432.856)" width="36.719" height="14.999"/>
	</g>
</g>
<g>
	<g>
		<rect x="215.893" y="319.64" transform="matrix(0.5145 -0.8575 0.8575 0.5145 -169.4001 355.0879)" width="25.966" height="15"/>
	</g>
</g>
<g>
	<g>
		<path d="M348.988,390.164l17.171-21.88l-11.8-9.261l-21.982,28.009l3.298,10.946c1.613,5.352,0.152,11.125-3.812,15.068
			l-2.515,2.502c-5.906,5.873-15.488,5.847-21.362-0.06l-7.255-7.295l-38.21-0.106l-0.042,15l31.998,0.089l2.874,2.89
			c5.874,5.907,13.609,8.863,21.347,8.862c7.681,0,15.364-2.913,21.228-8.744l2.515-2.502c7.9-7.856,10.811-19.364,7.597-30.032
			L348.988,390.164z"/>
	</g>
</g>
<g>
	<g>
		<rect x="271.714" y="370.382" transform="matrix(0.5104 -0.86 0.86 0.5104 -197.1264 430.1871)" width="15.001" height="35.644"/>
	</g>
</g>
<g>
	<g>
		<rect x="290.276" y="345.29" transform="matrix(0.8589 -0.5121 0.5121 0.8589 -144.219 203.7975)" width="15" height="36.721"/>
	</g>
</g>
<g>
	<g>
		<rect x="320.276" y="348.41" transform="matrix(0.9708 -0.2398 0.2398 0.9708 -77.1005 89.1485)" width="15" height="25.965"/>
	</g>
</g>
<g>
	<g>
		<polygon points="265.538,207.806 206.654,200.445 201.503,179.838 212.852,169.75 221.25,169.75 221.25,154.75 207.148,154.75 
			190.273,169.75 170.625,169.75 170.625,184.75 187.269,184.75 192.319,204.949 172.822,224.447 183.428,235.053 203.334,215.147 
			255.712,221.694 268.917,248.104 282.333,241.396 		"/>
	</g>
</g>
<g>
	<g>
		<rect x="229.094" y="229.748" transform="matrix(0.6585 -0.7526 0.7526 0.6585 -96.9087 260.9364)" width="19.932" height="15"/>
	</g>
</g>
<g>
	<g>
		<polygon points="378.354,236.458 371.646,223.042 345.539,236.095 326.66,223.51 318.34,235.99 337.5,248.764 337.5,274.75 
			352.5,274.75 352.5,258.764 363.34,265.99 371.66,253.51 359.913,245.678 		"/>
	</g>
</g>
<g>
	<g>
		<polygon points="397.87,309.098 403.856,277.173 377.625,257.5 368.625,269.5 387.394,283.577 382.13,311.652 392.819,330.892 
			405.931,323.608 		"/>
	</g>
</g>
<g>
	<g>
		
			<rect x="363.185" y="309.466" transform="matrix(0.9191 -0.3939 0.3939 0.9191 -94.9161 171.5056)" width="14.279" height="14.999"/>
	</g>
</g>
<g>
	<g>
		
			<rect x="393.502" y="248.48" transform="matrix(0.2425 -0.9701 0.9701 0.2425 55.5906 583.1567)" width="15.461" height="14.999"/>
	</g>
</g>
<g>
	<g>
		<rect x="88.12" y="372.25" width="15" height="15"/>
	</g>
</g>
<g>
	<g>
		<rect x="105" y="387.25" width="15" height="15"/>
	</g>
</g>
<g>
	<g>
		<rect x="90" y="297.25" width="15" height="15"/>
	</g>
</g>
<g>
	<g>
		<rect x="105" y="282.25" width="35.625" height="15"/>
	</g>
</g>
<g>
	<g>
		<rect x="150" y="409.75" width="15" height="15"/>
	</g>
</g>
<g>
	<g>
		<rect x="431.25" y="323.5" width="13.12" height="15"/>
	</g>
</g>
<g>
	<g>
		<rect x="217.5" y="94.75" width="15" height="15"/>
	</g>
</g>
<g>
	<g>
		<rect x="232.5" y="117.25" width="15" height="15"/>
	</g>
</g>
<g>
	<g>
		<rect x="277.5" y="160.37" width="35.625" height="15"/>
	</g>
</g>
<g>
</g>
<g>
</g>
<g>
</g>
<g>
</g>
<g>
</g>
<g>
</g>
<g>
</g>
<g>
</g>
<g>
</g>
<g>
</g>
<g>
</g>
<g>
</g>
<g>
</g>
<g>
</g>
<g>
</g>
</svg>
